<svg width="59" height="74" viewBox="0 0 59 74" fill="none" xmlns="http://www.w3.org/2000/svg">
<circle cx="4.90196" cy="4.90196" r="4.90196" fill="#FE7F38"/>
<circle cx="20.902" cy="4.90196" r="4.90196" fill="#FE7F38"/>
<circle cx="37.5033" cy="4.90196" r="4.90196" fill="#FE7F38"/>
<circle cx="53.902" cy="4.90196" r="4.90196" fill="#FE7F38"/>
<circle cx="4.90196" cy="20.902" r="4.90196" fill="#FE7F38"/>
<circle cx="20.902" cy="20.902" r="4.90196" fill="#FE7F38"/>
<circle cx="37.5033" cy="20.902" r="4.90196" fill="#FE7F38"/>
<circle cx="53.902" cy="20.902" r="4.90196" fill="#FE7F38"/>
<circle cx="4.90196" cy="36.902" r="4.90196" fill="#FE7F38"/>
<circle cx="20.902" cy="36.902" r="4.90196" fill="#FE7F38"/>
<circle cx="37.5033" cy="36.902" r="4.90196" fill="#FE7F38"/>
<circle cx="53.902" cy="36.902" r="4.90196" fill="#FE7F38"/>
<circle cx="4.90196" cy="52.902" r="4.90196" fill="#FE7F38"/>
<circle cx="20.902" cy="52.902" r="4.90196" fill="#FE7F38"/>
<circle cx="37.5033" cy="52.902" r="4.90196" fill="#FE7F38"/>
<circle cx="53.902" cy="52.902" r="4.90196" fill="#FE7F38"/>
<circle cx="4.90196" cy="68.902" r="4.90196" fill="#FE7F38"/>
<circle cx="20.902" cy="68.902" r="4.90196" fill="#FE7F38"/>
<circle cx="37.5033" cy="68.902" r="4.90196" fill="#FE7F38"/>
<circle cx="53.902" cy="68.902" r="4.90196" fill="#FE7F38"/>
</svg>
