<svg width="50" height="50" viewBox="0 0 50 50" fill="none" xmlns="http://www.w3.org/2000/svg">
<circle cx="25" cy="25" r="25" fill="#C4C4C4"/>
<path d="M15 35.625V14.375C15 13 16.125 11.875 17.5 11.875H32.5C33.875 11.875 35 13 35 14.375V35.625C35 37 33.875 38.125 32.5 38.125H17.5C16.125 38.125 15 37 15 35.625Z" fill="#37474F"/>
<path d="M32.5 13.75H17.5C17.125 13.75 16.875 14 16.875 14.375V33.75C16.875 34.125 17.125 34.375 17.5 34.375H32.5C32.875 34.375 33.125 34.125 33.125 33.75V14.375C33.125 14 32.875 13.75 32.5 13.75Z" fill="#BBDEFB"/>
<path d="M23.125 35.625H26.875V36.875H23.125V35.625Z" fill="#78909C"/>
</svg>
